<svg width="34" height="24" viewBox="0 0 34 24" fill="none" xmlns="http://www.w3.org/2000/svg">
<path fill-rule="evenodd" clip-rule="evenodd" d="M30.8807 0C31.8995 0 32.8042 0.447356 33.3735 1.13931L16.8408 13.8402L0.455353 1.36994C1.0032 0.548376 1.99132 0 3.11927 0H30.8807ZM0 21.1429V3.62367L11.757 12.5714L0.024236 21.5007C0.00824367 21.3835 0 21.2641 0 21.1429ZM1.07525 23.3011C1.62268 23.7365 2.33737 24 3.11927 24H30.8807C31.5528 24 32.1752 23.8053 32.6844 23.4742L20.1912 13.8766L17.9446 15.6025C17.3092 16.0906 16.3836 16.0926 15.7458 15.6072L13.4653 13.8716L1.07525 23.3011ZM21.8902 12.5714L33.9147 21.8091C33.9705 21.5953 34 21.3722 34 21.1429V3.26829L21.8902 12.5714Z" fill="#B2B2B2"/>
</svg>
