<svg width="109" height="102" viewBox="0 0 109 102" fill="none" xmlns="http://www.w3.org/2000/svg">
<path d="M51.0007 95.5C19.7692 91.9835 6.50035 66.5 4.50035 60C22.3174 27.4601 53.5872 30.2086 66.5 35.5C71.5 38 94.2601 47.0512 105.745 51.1551C107.009 61.0467 81.3499 98.9171 51.0007 95.5Z" fill="#123957"/>
<path d="M19.5 6.03613C18 16.0361 19.3 37.9361 36.5 45.5361C47.5001 49.0362 81.6 60.5362 90 76.5361H90.7266C81.4663 87.2535 67.7754 94.0361 52.5 94.0361C24.6096 94.0361 2 71.4265 2 43.5361C2 28.0886 8.93777 14.2633 19.8652 5L19.5 6.03613Z" fill="#5BA3D8" fill-opacity="0.5"/>
<path d="M30.9794 89.1752C31.0764 89.229 31.1743 89.2826 31.273 89.3362C38.2784 92.4521 70.1049 60.4208 76.2921 52.7504C81.9076 45.7887 95.9365 30.0957 102.711 27.1661C111.214 47.0783 103.828 66.3966 99.0722 73.5667C81.7231 103.177 46.4591 97.5743 31.273 89.3362C31.1697 89.2902 31.0718 89.2366 30.9794 89.1752Z" fill="#0A2235"/>
</svg>
