<svg width="50" height="50" viewBox="0 0 50 50" fill="none" xmlns="http://www.w3.org/2000/svg">
<path d="M10.4167 45.8327C9.27083 45.8327 8.28993 45.4247 7.47396 44.6087C6.65799 43.7927 6.25 42.8118 6.25 41.666V12.4993C6.25 11.3535 6.65799 10.3726 7.47396 9.55664C8.28993 8.74067 9.27083 8.33268 10.4167 8.33268H12.5V6.24935C12.5 5.65907 12.6997 5.16428 13.099 4.76497C13.4983 4.36567 13.9931 4.16602 14.5833 4.16602C15.1736 4.16602 15.6684 4.36567 16.0677 4.76497C16.467 5.16428 16.6667 5.65907 16.6667 6.24935V8.33268H33.3333V6.24935C33.3333 5.65907 33.533 5.16428 33.9323 4.76497C34.3316 4.36567 34.8264 4.16602 35.4167 4.16602C36.0069 4.16602 36.5017 4.36567 36.901 4.76497C37.3003 5.16428 37.5 5.65907 37.5 6.24935V8.33268H39.5833C40.7292 8.33268 41.7101 8.74067 42.526 9.55664C43.342 10.3726 43.75 11.3535 43.75 12.4993V20.8848C43.75 21.475 43.5503 21.9698 43.151 22.3691C42.7517 22.7684 42.2569 22.9681 41.6667 22.9681C41.0764 22.9681 40.5816 22.7684 40.1823 22.3691C39.783 21.9698 39.5833 21.475 39.5833 20.8848V20.8327H10.4167V41.666H22.9167C23.5069 41.666 24.0017 41.8657 24.401 42.265C24.8003 42.6643 25 43.1591 25 43.7493C25 44.3396 24.8003 44.8344 24.401 45.2337C24.0017 45.633 23.5069 45.8327 22.9167 45.8327H10.4167ZM29.1667 43.7493V40.3118C29.1667 40.0341 29.2187 39.765 29.3229 39.5046C29.4271 39.2441 29.5833 39.0098 29.7917 38.8014L40.6771 27.9681C40.9896 27.6556 41.3368 27.4299 41.7187 27.291C42.1007 27.1521 42.4826 27.0827 42.8646 27.0827C43.2812 27.0827 43.6806 27.1608 44.0625 27.3171C44.4444 27.4733 44.7917 27.7077 45.1042 28.0202L47.0312 29.9473C47.309 30.2598 47.526 30.607 47.6823 30.9889C47.8385 31.3709 47.9167 31.7528 47.9167 32.1348C47.9167 32.5167 47.8472 32.9073 47.7083 33.3066C47.5694 33.7059 47.3437 34.0618 47.0312 34.3743L36.1979 45.2077C35.9896 45.416 35.7552 45.5723 35.4948 45.6764C35.2344 45.7806 34.9653 45.8327 34.6875 45.8327H31.25C30.6597 45.8327 30.1649 45.633 29.7656 45.2337C29.3663 44.8344 29.1667 44.3396 29.1667 43.7493ZM42.8646 34.166L44.7917 32.1348L42.8646 30.2077L40.8854 32.1868L42.8646 34.166Z" fill="#B2B2B2"/>
</svg>
