<svg width="50" height="50" viewBox="0 0 50 50" fill="none" xmlns="http://www.w3.org/2000/svg">
<g clip-path="url(#clip0_8539_7507)">
<path d="M10.4167 43.75C9.27083 43.75 8.28993 43.342 7.47396 42.526C6.65799 41.7101 6.25 40.7292 6.25 39.5833V10.4167C6.25 9.27083 6.65799 8.28993 7.47396 7.47396C8.28993 6.65799 9.27083 6.25 10.4167 6.25H39.5833C40.7292 6.25 41.7101 6.65799 42.526 7.47396C43.342 8.28993 43.75 9.27083 43.75 10.4167V39.5833C43.75 40.7292 43.342 41.7101 42.526 42.526C41.7101 43.342 40.7292 43.75 39.5833 43.75H33.3333C32.7431 43.75 32.2483 43.5503 31.849 43.151C31.4497 42.7517 31.25 42.2569 31.25 41.6667C31.25 41.0764 31.4497 40.5816 31.849 40.1823C32.2483 39.783 32.7431 39.5833 33.3333 39.5833H39.5833V14.5833H10.4167V39.5833H16.6667C17.2569 39.5833 17.7517 39.783 18.151 40.1823C18.5503 40.5816 18.75 41.0764 18.75 41.6667C18.75 42.2569 18.5503 42.7517 18.151 43.151C17.7517 43.5503 17.2569 43.75 16.6667 43.75H10.4167ZM22.9167 41.6667V30.9375L21.0938 32.7604C20.6771 33.1771 20.1823 33.3767 19.6094 33.3594C19.0365 33.342 18.5417 33.125 18.125 32.7083C17.7431 32.2917 17.5434 31.8056 17.526 31.25C17.5087 30.6944 17.7083 30.2083 18.125 29.7917L23.5417 24.375C23.75 24.1667 23.9757 24.0191 24.2188 23.9323C24.4618 23.8455 24.7222 23.8021 25 23.8021C25.2778 23.8021 25.5382 23.8455 25.7812 23.9323C26.0243 24.0191 26.25 24.1667 26.4583 24.375L31.875 29.7917C32.2917 30.2083 32.4913 30.6944 32.474 31.25C32.4566 31.8056 32.2569 32.2917 31.875 32.7083C31.4583 33.125 30.9635 33.342 30.3906 33.3594C29.8177 33.3767 29.3229 33.1771 28.9062 32.7604L27.0833 30.9375V41.6667C27.0833 42.2569 26.8837 42.7517 26.4844 43.151C26.0851 43.5503 25.5903 43.75 25 43.75C24.4097 43.75 23.9149 43.5503 23.5156 43.151C23.1163 42.7517 22.9167 42.2569 22.9167 41.6667Z" fill="#B2B2B2"/>
</g>
<defs>
<clipPath id="clip0_8539_7507">
<rect width="50" height="50" fill="white"/>
</clipPath>
</defs>
</svg>
