<svg width="120" height="120" viewBox="0 0 120 120" fill="none" xmlns="http://www.w3.org/2000/svg">
<path d="M60 67.5C55.5 67.5 51.2708 68.4792 47.3125 70.4375C43.3542 72.3958 40.1667 75.25 37.75 79C36.8333 80.3333 36.7083 81.6667 37.375 83C38.0417 84.3333 39.125 85 40.625 85C41.2917 85 41.8958 84.8542 42.4375 84.5625C42.9792 84.2708 43.4583 83.8333 43.875 83.25C45.7917 80.6667 48.1667 78.6458 51 77.1875C53.8333 75.7292 56.8333 75 60 75C63.1667 75 66.1667 75.7292 69 77.1875C71.8333 78.6458 74.2083 80.6667 76.125 83.25C76.4583 83.8333 76.8958 84.2708 77.4375 84.5625C77.9792 84.8542 78.5833 85 79.25 85C80.75 85 81.8333 84.3125 82.5 82.9375C83.1667 81.5625 83.0417 80.1667 82.125 78.75C79.7083 75.0833 76.5208 72.2917 72.5625 70.375C68.6042 68.4583 64.4167 67.5 60 67.5ZM77.5 55C79.5833 55 81.3542 54.2708 82.8125 52.8125C84.2708 51.3542 85 49.5833 85 47.5C85 45.4167 84.2708 43.6458 82.8125 42.1875C81.3542 40.7292 79.5833 40 77.5 40C75.4167 40 73.6458 40.7292 72.1875 42.1875C70.7292 43.6458 70 45.4167 70 47.5C70 49.5833 70.7292 51.3542 72.1875 52.8125C73.6458 54.2708 75.4167 55 77.5 55ZM42.5 55C44.5833 55 46.3542 54.2708 47.8125 52.8125C49.2708 51.3542 50 49.5833 50 47.5C50 45.4167 49.2708 43.6458 47.8125 42.1875C46.3542 40.7292 44.5833 40 42.5 40C40.4167 40 38.6458 40.7292 37.1875 42.1875C35.7292 43.6458 35 45.4167 35 47.5C35 49.5833 35.7292 51.3542 37.1875 52.8125C38.6458 54.2708 40.4167 55 42.5 55ZM60 110C53.0833 110 46.5833 108.688 40.5 106.062C34.4167 103.438 29.125 99.875 24.625 95.375C20.125 90.875 16.5625 85.5833 13.9375 79.5C11.3125 73.4167 10 66.9167 10 60C10 53.0833 11.3125 46.5833 13.9375 40.5C16.5625 34.4167 20.125 29.125 24.625 24.625C29.125 20.125 34.4167 16.5625 40.5 13.9375C46.5833 11.3125 53.0833 10 60 10C66.9167 10 73.4167 11.3125 79.5 13.9375C85.5833 16.5625 90.875 20.125 95.375 24.625C99.875 29.125 103.438 34.4167 106.063 40.5C108.688 46.5833 110 53.0833 110 60C110 66.9167 108.688 73.4167 106.063 79.5C103.438 85.5833 99.875 90.875 95.375 95.375C90.875 99.875 85.5833 103.438 79.5 106.062C73.4167 108.688 66.9167 110 60 110Z" fill="#D1D1D1"/>
</svg>
