<svg width="20" height="20" viewBox="0 0 20 20" fill="none" xmlns="http://www.w3.org/2000/svg">
<path d="M10 14.7668C11.3278 14.7668 12.4543 14.3043 13.3793 13.3793C14.3043 12.4543 14.7668 11.3278 14.7668 10C14.7668 8.6722 14.3043 7.54575 13.3793 6.62075C12.4543 5.69575 11.3278 5.23325 10 5.23325C8.6722 5.23325 7.54575 5.69575 6.62075 6.62075C5.69575 7.54575 5.23325 8.6722 5.23325 10C5.23325 11.3278 5.69575 12.4543 6.62075 13.3793C7.54575 14.3043 8.6722 14.7668 10 14.7668ZM10 20C8.6278 20 7.33342 19.7375 6.11675 19.2125C4.90008 18.6875 3.83892 17.9723 2.93325 17.0668C2.02775 16.1611 1.3125 15.0999 0.7875 13.8833C0.2625 12.6666 0 11.3722 0 10C0 8.6167 0.2625 7.31667 0.7875 6.1C1.3125 4.88333 2.02775 3.825 2.93325 2.925C3.83892 2.025 4.90008 1.3125 6.11675 0.7875C7.33342 0.2625 8.6278 0 10 0C11.3833 0 12.6833 0.2625 13.9 0.7875C15.1167 1.3125 16.175 2.025 17.075 2.925C17.975 3.825 18.6875 4.88333 19.2125 6.1C19.7375 7.31667 20 8.6167 20 10C20 11.3722 19.7375 12.6666 19.2125 13.8833C18.6875 15.0999 17.975 16.1611 17.075 17.0668C16.175 17.9723 15.1167 18.6875 13.9 19.2125C12.6833 19.7375 11.3833 20 10 20ZM10 18.3333C12.3222 18.3333 14.2916 17.5222 15.9083 15.9C17.5249 14.2778 18.3333 12.3112 18.3333 10C18.3333 7.67783 17.5249 5.70842 15.9083 4.09175C14.2916 2.47508 12.3222 1.66675 10 1.66675C7.68883 1.66675 5.72217 2.47508 4.1 4.09175C2.47783 5.70842 1.66675 7.67783 1.66675 10C1.66675 12.3112 2.47783 14.2778 4.1 15.9C5.72217 17.5222 7.68883 18.3333 10 18.3333Z" fill="#FF0000"/>
</svg>
