<svg width="40" height="40" viewBox="0 0 40 40" fill="none" xmlns="http://www.w3.org/2000/svg">
<rect width="40" height="40" rx="20" fill="#FAFAFA"/>
<path d="M6.25 27C5.89583 27 5.59896 26.8722 5.35938 26.6167C5.11979 26.3611 5 26.0444 5 25.6667V24.9C5 23.9444 5.45833 23.1667 6.375 22.5667C7.29167 21.9667 8.5 21.6667 10 21.6667C10.2708 21.6667 10.5312 21.6722 10.7812 21.6833C11.0312 21.6944 11.2708 21.7222 11.5 21.7667C11.2083 22.2333 10.9896 22.7222 10.8438 23.2333C10.6979 23.7444 10.625 24.2778 10.625 24.8333V27H6.25ZM13.75 27C13.3958 27 13.099 26.8722 12.8594 26.6167C12.6198 26.3611 12.5 26.0444 12.5 25.6667V24.8333C12.5 24.1222 12.6823 23.4722 13.0469 22.8833C13.4115 22.2944 13.9271 21.7778 14.5938 21.3333C15.2604 20.8889 16.0573 20.5556 16.9844 20.3333C17.9115 20.1111 18.9167 20 20 20C21.1042 20 22.1198 20.1111 23.0469 20.3333C23.974 20.5556 24.7708 20.8889 25.4375 21.3333C26.1042 21.7778 26.6146 22.2944 26.9688 22.8833C27.3229 23.4722 27.5 24.1222 27.5 24.8333V25.6667C27.5 26.0444 27.3802 26.3611 27.1406 26.6167C26.901 26.8722 26.6042 27 26.25 27H13.75ZM29.375 27V24.8333C29.375 24.2556 29.3073 23.7111 29.1719 23.2C29.0365 22.6889 28.8333 22.2111 28.5625 21.7667C28.7917 21.7222 29.026 21.6944 29.2656 21.6833C29.5052 21.6722 29.75 21.6667 30 21.6667C31.5 21.6667 32.7083 21.9611 33.625 22.55C34.5417 23.1389 35 23.9222 35 24.9V25.6667C35 26.0444 34.8802 26.3611 34.6406 26.6167C34.401 26.8722 34.1042 27 33.75 27H29.375ZM10 20.3333C9.3125 20.3333 8.72396 20.0722 8.23438 19.55C7.74479 19.0278 7.5 18.4 7.5 17.6667C7.5 16.9111 7.74479 16.2778 8.23438 15.7667C8.72396 15.2556 9.3125 15 10 15C10.7083 15 11.3021 15.2556 11.7812 15.7667C12.2604 16.2778 12.5 16.9111 12.5 17.6667C12.5 18.4 12.2604 19.0278 11.7812 19.55C11.3021 20.0722 10.7083 20.3333 10 20.3333ZM30 20.3333C29.3125 20.3333 28.724 20.0722 28.2344 19.55C27.7448 19.0278 27.5 18.4 27.5 17.6667C27.5 16.9111 27.7448 16.2778 28.2344 15.7667C28.724 15.2556 29.3125 15 30 15C30.7083 15 31.3021 15.2556 31.7812 15.7667C32.2604 16.2778 32.5 16.9111 32.5 17.6667C32.5 18.4 32.2604 19.0278 31.7812 19.55C31.3021 20.0722 30.7083 20.3333 30 20.3333ZM20 19C18.9583 19 18.0729 18.6111 17.3438 17.8333C16.6146 17.0556 16.25 16.1111 16.25 15C16.25 13.8667 16.6146 12.9167 17.3438 12.15C18.0729 11.3833 18.9583 11 20 11C21.0625 11 21.9531 11.3833 22.6719 12.15C23.3906 12.9167 23.75 13.8667 23.75 15C23.75 16.1111 23.3906 17.0556 22.6719 17.8333C21.9531 18.6111 21.0625 19 20 19Z" fill="#B2B2B2"/>
</svg>
