<svg width="50" height="50" viewBox="0 0 50 50" fill="none" xmlns="http://www.w3.org/2000/svg">
<g clip-path="url(#clip0_8539_8130)">
<path d="M22.9167 27.0833V33.3333C22.9167 33.9236 23.1163 34.4184 23.5156 34.8177C23.9149 35.217 24.4097 35.4167 25 35.4167C25.5903 35.4167 26.0851 35.217 26.4844 34.8177C26.8837 34.4184 27.0833 33.9236 27.0833 33.3333V27.0833H33.3333C33.9236 27.0833 34.4184 26.8837 34.8177 26.4844C35.217 26.0851 35.4167 25.5903 35.4167 25C35.4167 24.4097 35.217 23.9149 34.8177 23.5156C34.4184 23.1163 33.9236 22.9167 33.3333 22.9167H27.0833V16.6667C27.0833 16.0764 26.8837 15.5816 26.4844 15.1823C26.0851 14.783 25.5903 14.5833 25 14.5833C24.4097 14.5833 23.9149 14.783 23.5156 15.1823C23.1163 15.5816 22.9167 16.0764 22.9167 16.6667V22.9167H16.6667C16.0764 22.9167 15.5816 23.1163 15.1823 23.5156C14.783 23.9149 14.5833 24.4097 14.5833 25C14.5833 25.5903 14.783 26.0851 15.1823 26.4844C15.5816 26.8837 16.0764 27.0833 16.6667 27.0833H22.9167ZM10.4167 43.75C9.27083 43.75 8.28993 43.342 7.47396 42.526C6.65799 41.7101 6.25 40.7292 6.25 39.5833V10.4167C6.25 9.27083 6.65799 8.28993 7.47396 7.47396C8.28993 6.65799 9.27083 6.25 10.4167 6.25H39.5833C40.7292 6.25 41.7101 6.65799 42.526 7.47396C43.342 8.28993 43.75 9.27083 43.75 10.4167V39.5833C43.75 40.7292 43.342 41.7101 42.526 42.526C41.7101 43.342 40.7292 43.75 39.5833 43.75H10.4167Z" fill="#B2B2B2"/>
</g>
<defs>
<clipPath id="clip0_8539_8130">
<rect width="50" height="50" fill="white"/>
</clipPath>
</defs>
</svg>
