<svg width="50" height="50" viewBox="0 0 50 50" fill="none" xmlns="http://www.w3.org/2000/svg">
<g clip-path="url(#clip0_8729_7109)">
<path d="M24.9993 35.416C25.5896 35.416 26.0844 35.2164 26.4837 34.8171C26.883 34.4178 27.0827 33.923 27.0827 33.3327C27.0827 32.7424 26.883 32.2476 26.4837 31.8483C26.0844 31.449 25.5896 31.2493 24.9993 31.2493C24.4091 31.2493 23.9143 31.449 23.515 31.8483C23.1157 32.2476 22.916 32.7424 22.916 33.3327C22.916 33.923 23.1157 34.4178 23.515 34.8171C23.9143 35.2164 24.4091 35.416 24.9993 35.416ZM24.9993 27.0827C25.5896 27.0827 26.0844 26.883 26.4837 26.4837C26.883 26.0844 27.0827 25.5896 27.0827 24.9993V16.666C27.0827 16.0757 26.883 15.5809 26.4837 15.1816C26.0844 14.7823 25.5896 14.5827 24.9993 14.5827C24.4091 14.5827 23.9143 14.7823 23.515 15.1816C23.1157 15.5809 22.916 16.0757 22.916 16.666V24.9993C22.916 25.5896 23.1157 26.0844 23.515 26.4837C23.9143 26.883 24.4091 27.0827 24.9993 27.0827ZM24.9993 45.8327C22.1174 45.8327 19.4091 45.2858 16.8743 44.1921C14.3396 43.0983 12.1348 41.6139 10.2598 39.7389C8.38477 37.8639 6.90039 35.6591 5.80664 33.1243C4.71289 30.5896 4.16602 27.8813 4.16602 24.9993C4.16602 22.1174 4.71289 19.4091 5.80664 16.8743C6.90039 14.3396 8.38477 12.1348 10.2598 10.2598C12.1348 8.38477 14.3396 6.90039 16.8743 5.80664C19.4091 4.71289 22.1174 4.16602 24.9993 4.16602C27.8813 4.16602 30.5896 4.71289 33.1243 5.80664C35.6591 6.90039 37.8639 8.38477 39.7389 10.2598C41.6139 12.1348 43.0983 14.3396 44.1921 16.8743C45.2858 19.4091 45.8327 22.1174 45.8327 24.9993C45.8327 27.8813 45.2858 30.5896 44.1921 33.1243C43.0983 35.6591 41.6139 37.8639 39.7389 39.7389C37.8639 41.6139 35.6591 43.0983 33.1243 44.1921C30.5896 45.2858 27.8813 45.8327 24.9993 45.8327Z" fill="#B2B2B2"/>
</g>
<defs>
<clipPath id="clip0_8729_7109">
<rect width="50" height="50" fill="white"/>
</clipPath>
</defs>
</svg>
