<svg width="48" height="48" viewBox="0 0 48 48" fill="none" xmlns="http://www.w3.org/2000/svg">
<path d="M7 40C6.2 40 5.5 39.7 4.9 39.1C4.3 38.5 4 37.8 4 37V11C4 10.2 4.3 9.5 4.9 8.9C5.5 8.3 6.2 8 7 8H33C33.8 8 34.5 8.3 35.1 8.9C35.7 9.5 36 10.2 36 11V21.75L42.7 15.05C42.9333 14.8167 43.2083 14.7583 43.525 14.875C43.8417 14.9917 44 15.2167 44 15.55V32.45C44 32.7833 43.8417 33.0083 43.525 33.125C43.2083 33.2417 42.9333 33.1833 42.7 32.95L36 26.25V37C36 37.8 35.7 38.5 35.1 39.1C34.5 39.7 33.8 40 33 40H7Z" fill="#909090"/>
</svg>
