<svg width="50" height="50" viewBox="0 0 50 50" fill="none" xmlns="http://www.w3.org/2000/svg">
<path d="M25 29.166C23.2639 29.166 21.7882 28.5584 20.5729 27.3431C19.3576 26.1278 18.75 24.6521 18.75 22.916V10.416C18.75 8.6799 19.3576 7.20421 20.5729 5.98893C21.7882 4.77365 23.2639 4.16602 25 4.16602C26.7361 4.16602 28.2118 4.77365 29.4271 5.98893C30.6424 7.20421 31.25 8.6799 31.25 10.416V22.916C31.25 24.6521 30.6424 26.1278 29.4271 27.3431C28.2118 28.5584 26.7361 29.166 25 29.166ZM22.9167 41.666V37.3431C19.7222 36.8917 16.9878 35.5375 14.7135 33.2806C12.4392 31.0237 11.059 28.2806 10.5729 25.0514C10.5035 24.4612 10.6597 23.9577 11.0417 23.541C11.4236 23.1243 11.9097 22.916 12.5 22.916C13.0903 22.916 13.5851 23.1157 13.9844 23.515C14.3837 23.9143 14.6528 24.4091 14.7917 24.9993C15.2778 27.4299 16.4844 29.4264 18.4115 30.9889C20.3385 32.5514 22.5347 33.3327 25 33.3327C27.5 33.3327 29.7049 32.5428 31.6146 30.9629C33.5243 29.383 34.7222 27.3952 35.2083 24.9993C35.3472 24.4091 35.6163 23.9143 36.0156 23.515C36.4149 23.1157 36.9097 22.916 37.5 22.916C38.0903 22.916 38.5764 23.1243 38.9583 23.541C39.3403 23.9577 39.4965 24.4612 39.4271 25.0514C38.941 28.2112 37.5694 30.9368 35.3125 33.2285C33.0556 35.5202 30.3125 36.8917 27.0833 37.3431V41.666C27.0833 42.2563 26.8837 42.7511 26.4844 43.1504C26.0851 43.5497 25.5903 43.7493 25 43.7493C24.4097 43.7493 23.9149 43.5497 23.5156 43.1504C23.1163 42.7511 22.9167 42.2563 22.9167 41.666Z" fill="#909090"/>
</svg>
