<svg width="48" height="48" viewBox="0 0 48 48" fill="none" xmlns="http://www.w3.org/2000/svg">
<g clip-path="url(#clip0_7431_5471)">
<path d="M35.9998 21.7492L42.6998 15.0492C42.9331 14.8159 43.2081 14.7576 43.5248 14.8742C43.8415 14.9909 43.9998 15.2159 43.9998 15.5492V32.4492C43.9998 32.7826 43.8415 33.0076 43.5248 33.1242C43.2081 33.2409 42.9331 33.1826 42.6998 32.9492L35.9998 26.2492V28.1992C35.9998 28.8659 35.6915 29.3242 35.0748 29.5742C34.4581 29.8242 33.9165 29.7159 33.4498 29.2492L14.7498 10.5492C14.5165 10.3159 14.3831 10.0576 14.3498 9.77422C14.3165 9.49089 14.3498 9.21589 14.4498 8.94922C14.5498 8.68255 14.7165 8.45755 14.9498 8.27422C15.1831 8.09089 15.4665 7.99922 15.7998 7.99922H32.9998C33.7998 7.99922 34.4998 8.29922 35.0998 8.89922C35.6998 9.49922 35.9998 10.1992 35.9998 10.9992V21.7492ZM41.3498 45.5992L2.9998 7.24922C2.6998 6.94922 2.5498 6.59922 2.5498 6.19922C2.5498 5.79922 2.6998 5.44922 2.9998 5.14922C3.2998 4.84922 3.6498 4.69922 4.0498 4.69922C4.4498 4.69922 4.7998 4.84922 5.0998 5.14922L43.4498 43.4992C43.7498 43.7992 43.8998 44.1492 43.8998 44.5492C43.8998 44.9492 43.7498 45.2992 43.4498 45.5992C43.1498 45.8992 42.7998 46.0492 42.3998 46.0492C41.9998 46.0492 41.6498 45.8992 41.3498 45.5992ZM7.9498 7.99922L35.9998 36.0492V36.9992C35.9998 37.7992 35.6998 38.4992 35.0998 39.0992C34.4998 39.6992 33.7998 39.9992 32.9998 39.9992H6.9998C6.1998 39.9992 5.4998 39.6992 4.8998 39.0992C4.2998 38.4992 3.9998 37.7992 3.9998 36.9992V10.9992C3.9998 10.1992 4.2998 9.49922 4.8998 8.89922C5.4998 8.29922 6.1998 7.99922 6.9998 7.99922H7.9498Z" fill="#909090"/>
</g>
<defs>
<clipPath id="clip0_7431_5471">
<rect width="48" height="48" fill="white"/>
</clipPath>
</defs>
</svg>
