<svg width="48" height="48" viewBox="0 0 48 48" fill="none" xmlns="http://www.w3.org/2000/svg">
<g clip-path="url(#clip0_7431_5473)">
<path d="M42.0001 33.9992C42.0001 34.9659 41.6334 35.4409 40.9001 35.4242C40.1668 35.4076 39.5334 35.1326 39.0001 34.5992L32.2001 27.7992C31.7334 27.3326 31.6251 26.7909 31.8751 26.1742C32.1251 25.5576 32.5834 25.2492 33.2501 25.2492H39.0001V21.8492C39.0001 17.7159 37.5501 14.1576 34.6501 11.1742C31.7501 8.19089 28.2334 6.69922 24.1001 6.69922C22.4001 6.69922 20.7251 6.99922 19.0751 7.59922C17.4251 8.19922 15.9334 9.06589 14.6001 10.1992L12.4001 7.99922C13.9001 6.73255 15.6501 5.69922 17.6501 4.89922C19.6501 4.09922 21.8001 3.69922 24.1001 3.69922C26.6001 3.69922 28.9418 4.17422 31.1251 5.12422C33.3084 6.07422 35.2001 7.37422 36.8001 9.02422C38.4001 10.6742 39.6668 12.5992 40.6001 14.7992C41.5334 16.9992 42.0001 19.3492 42.0001 21.8492V33.9992ZM25.6001 45.7492C25.1668 45.7492 24.8084 45.6076 24.5251 45.3242C24.2418 45.0409 24.1001 44.6826 24.1001 44.2492C24.1001 43.8159 24.2418 43.4576 24.5251 43.1742C24.8084 42.8909 25.1668 42.7492 25.6001 42.7492H38.6001L35.8501 39.9992H34.6001C33.7668 39.9992 33.0584 39.7076 32.4751 39.1242C31.8918 38.5409 31.6001 37.8326 31.6001 36.9992V35.7492L10.8001 14.9492C10.2334 15.8826 9.79176 16.9659 9.4751 18.1992C9.15843 19.4326 9.0001 20.6492 9.0001 21.8492V25.2492H13.4001C14.2334 25.2492 14.9418 25.5409 15.5251 26.1242C16.1084 26.7076 16.4001 27.4159 16.4001 28.2492V36.9992C16.4001 37.8326 16.1084 38.5409 15.5251 39.1242C14.9418 39.7076 14.2334 39.9992 13.4001 39.9992H9.0001C8.2001 39.9992 7.5001 39.6992 6.9001 39.0992C6.3001 38.4992 6.0001 37.7992 6.0001 36.9992V21.8492C6.0001 20.0826 6.2251 18.4076 6.6751 16.8242C7.1251 15.2409 7.73343 13.8492 8.5001 12.6492L3.0501 7.19922C2.7501 6.89922 2.6001 6.54922 2.6001 6.14922C2.6001 5.74922 2.7501 5.39922 3.0501 5.09922C3.3501 4.79922 3.70843 4.64922 4.1251 4.64922C4.54176 4.64922 4.9001 4.79922 5.2001 5.09922L44.0001 43.8492C44.3668 44.2159 44.4501 44.6242 44.2501 45.0742C44.0501 45.5242 43.7001 45.7492 43.2001 45.7492H25.6001Z" fill="#909090"/>
</g>
<defs>
<clipPath id="clip0_7431_5473">
<rect width="48" height="48" fill="white"/>
</clipPath>
</defs>
</svg>
