<svg width="48" height="48" viewBox="0 0 48 48" fill="none" xmlns="http://www.w3.org/2000/svg">
<path d="M22.45 21.35H26.5V23.95C26.5 24.125 26.575 24.2437 26.725 24.306C26.875 24.3687 27.0208 24.3292 27.1625 24.1875L30.945 20.405C31.115 20.235 31.2 20.047 31.2 19.841C31.2 19.635 31.1167 19.4547 30.95 19.3L27.163 15.513C27.021 15.371 26.875 15.3312 26.725 15.3935C26.575 15.4562 26.5 15.575 26.5 15.75V18.35H22.45C20.839 18.35 19.4695 18.9138 18.3415 20.0415C17.2138 21.1695 16.65 22.539 16.65 24.15V27.15C16.65 27.575 16.7947 27.9312 17.084 28.2185C17.373 28.5062 17.7313 28.65 18.159 28.65C18.5863 28.65 18.9417 28.5062 19.225 28.2185C19.5083 27.9312 19.65 27.575 19.65 27.15V24.15C19.65 23.3567 19.9183 22.6917 20.455 22.155C20.9917 21.6183 21.6567 21.35 22.45 21.35ZM3.5 42C3.075 42 2.71883 41.8553 2.4315 41.566C2.14383 41.277 2 40.9187 2 40.491C2 40.0637 2.14383 39.7083 2.4315 39.425C2.71883 39.1417 3.075 39 3.5 39H44.5C44.925 39 45.2813 39.1447 45.569 39.434C45.8563 39.723 46 40.0813 46 40.509C46 40.9363 45.8563 41.2917 45.569 41.575C45.2813 41.8583 44.925 42 44.5 42H3.5ZM7 36C6.2 36 5.5 35.7 4.9 35.1C4.3 34.5 4 33.8 4 33V9C4 8.2 4.3 7.5 4.9 6.9C5.5 6.3 6.2 6 7 6H41C41.8 6 42.5 6.3 43.1 6.9C43.7 7.5 44 8.2 44 9V33C44 33.8 43.7 34.5 43.1 35.1C42.5 35.7 41.8 36 41 36H7Z" fill="#909090"/>
</svg>
