<svg width="48" height="48" viewBox="0 0 48 48" fill="none" xmlns="http://www.w3.org/2000/svg">
<path d="M9 40.2992C8.2 40.2992 7.5 39.9992 6.9 39.3992C6.3 38.7992 6 38.0992 6 37.2992V22.0992C6 19.6082 6.475 17.2602 7.425 15.0552C8.375 12.8502 9.66667 10.9231 11.3 9.27372C12.9333 7.62405 14.8533 6.32422 17.06 5.37422C19.267 4.42422 21.617 3.94922 24.11 3.94922C26.6033 3.94922 28.9417 4.42422 31.125 5.37422C33.3083 6.32422 35.2008 7.62405 36.8025 9.27372C38.4042 10.9231 39.6708 12.8502 40.6025 15.0552C41.5342 17.2602 42 19.6082 42 22.0992V42.9992C42 43.7992 41.7 44.4992 41.1 45.0992C40.5 45.6992 39.8 45.9992 39 45.9992H25.6C25.175 45.9992 24.8188 45.8546 24.5315 45.5652C24.2438 45.2762 24.1 44.9179 24.1 44.4902C24.1 44.0629 24.2438 43.7076 24.5315 43.4242C24.8188 43.1409 25.175 42.9992 25.6 42.9992H39V40.2992H34.6C33.775 40.2992 33.0688 40.0054 32.4815 39.4177C31.8938 38.8304 31.6 38.1242 31.6 37.2992V28.4992C31.6 27.6742 31.8938 26.9679 32.4815 26.3802C33.0688 25.7929 33.775 25.4992 34.6 25.4992H39V22.0992C39 17.9659 37.55 14.4076 34.65 11.4242C31.75 8.44089 28.2333 6.94922 24.1 6.94922C19.9667 6.94922 16.4167 8.44089 13.45 11.4242C10.4833 14.4076 9 17.9659 9 22.0992V25.4992H13.4C14.225 25.4992 14.9313 25.7929 15.519 26.3802C16.1063 26.9679 16.4 27.6742 16.4 28.4992V37.2992C16.4 38.1242 16.1063 38.8304 15.519 39.4177C14.9313 40.0054 14.225 40.2992 13.4 40.2992H9Z" fill="#909090"/>
</svg>
