<svg width="50" height="50" viewBox="0 0 50 50" fill="none" xmlns="http://www.w3.org/2000/svg">
<path d="M33.9001 29.95C33.5668 29.6833 33.3834 29.35 33.3501 28.95C33.3168 28.55 33.4334 28.1833 33.7001 27.85C34.0631 27.2887 34.3613 26.6892 34.5946 26.0515C34.8279 25.4138 34.9964 24.7633 35.1001 24.1C35.1668 23.6667 35.3448 23.3 35.6341 23C35.9231 22.7 36.2814 22.55 36.7091 22.55C37.1364 22.55 37.4918 22.7012 37.7751 23.0035C38.0584 23.3062 38.1668 23.6717 38.1001 24.1C37.9668 25.107 37.7334 26.092 37.4001 27.055C37.0668 28.0183 36.6001 28.9167 36.0001 29.75C35.7334 30.0833 35.4011 30.2667 35.0031 30.3C34.6054 30.3333 34.2378 30.2167 33.9001 29.95ZM26.7001 22.4L20.0501 15.7C19.7834 15.4333 19.5668 15.112 19.4001 14.736C19.2334 14.36 19.1501 13.9647 19.1501 13.55V10.05C19.1501 8.64733 19.6408 7.455 20.6221 6.473C21.6034 5.491 22.7951 5 24.1971 5C25.5991 5 26.7918 5.491 27.7751 6.473C28.7584 7.455 29.2501 8.64733 29.2501 10.05V21.3C29.2501 21.975 28.9418 22.4437 28.3251 22.706C27.7084 22.9687 27.1668 22.8667 26.7001 22.4ZM22.7001 41.5V36.2C19.5001 35.8333 16.7251 34.5417 14.3751 32.325C12.0251 30.1083 10.6668 27.3667 10.3001 24.1C10.2334 23.6717 10.3433 23.3062 10.6296 23.0035C10.9163 22.7012 11.2746 22.55 11.7046 22.55C12.1349 22.55 12.4918 22.7 12.7751 23C13.0584 23.3 13.2334 23.6667 13.3001 24.1C13.7001 26.8 14.9418 29.0083 17.0251 30.725C19.1084 32.4417 21.4974 33.3 24.1921 33.3C25.4824 33.3 26.7063 33.0917 27.8636 32.675C29.0213 32.2583 30.0834 31.6833 31.0501 30.95L33.2001 33.1C32.1668 33.9667 31.0166 34.6583 29.7496 35.175C28.4823 35.6917 27.1324 36.0333 25.7001 36.2V41.5C25.7001 41.925 25.5554 42.2812 25.2661 42.5685C24.9771 42.8562 24.6188 43 24.1911 43C23.7638 43 23.4084 42.8562 23.1251 42.5685C22.8418 42.2812 22.7001 41.925 22.7001 41.5ZM41.6001 45.3L3.7501 7.45C3.48343 7.18333 3.3501 6.86667 3.3501 6.5C3.3501 6.13333 3.48343 5.81667 3.7501 5.55C4.01676 5.28333 4.33343 5.15 4.7001 5.15C5.06676 5.15 5.38343 5.28333 5.6501 5.55L43.5001 43.4C43.7668 43.6667 43.9001 43.9833 43.9001 44.35C43.9001 44.7167 43.7668 45.0333 43.5001 45.3C43.2334 45.5667 42.9168 45.7 42.5501 45.7C42.1834 45.7 41.8668 45.5667 41.6001 45.3Z" fill="#909090"/>
</svg>
