<svg width="120" height="120" viewBox="0 0 120 120" fill="none" xmlns="http://www.w3.org/2000/svg">
<path d="M53 67L42.25 56.25C41.3333 55.3333 40.1667 54.875 38.75 54.875C37.3333 54.875 36.1667 55.3333 35.25 56.25C34.3333 57.1667 33.875 58.3333 33.875 59.75C33.875 61.1667 34.3333 62.3333 35.25 63.25L49.5 77.5C50.5 78.5 51.6667 79 53 79C54.3333 79 55.5 78.5 56.5 77.5L84.75 49.25C85.6667 48.3333 86.125 47.1667 86.125 45.75C86.125 44.3333 85.6667 43.1667 84.75 42.25C83.8333 41.3333 82.6667 40.875 81.25 40.875C79.8333 40.875 78.6667 41.3333 77.75 42.25L53 67ZM25 105C22.25 105 19.8958 104.021 17.9375 102.062C15.9792 100.104 15 97.75 15 95V25C15 22.25 15.9792 19.8958 17.9375 17.9375C19.8958 15.9792 22.25 15 25 15H95C97.75 15 100.104 15.9792 102.062 17.9375C104.021 19.8958 105 22.25 105 25V95C105 97.75 104.021 100.104 102.062 102.062C100.104 104.021 97.75 105 95 105H25Z" fill="#D1D1D1"/>
</svg>
