<svg width="24" height="25" viewBox="0 0 24 25" fill="none" xmlns="http://www.w3.org/2000/svg">
<path d="M10.5 16.8002C10.3667 16.8002 10.25 16.7544 10.15 16.6627C10.05 16.571 10 16.4502 10 16.3002V8.7002C10 8.5502 10.05 8.42936 10.15 8.3377C10.25 8.24603 10.3667 8.2002 10.5 8.2002C10.5333 8.2002 10.65 8.2502 10.85 8.3502L14.475 11.9752C14.5583 12.0585 14.6167 12.1419 14.65 12.2252C14.6833 12.3085 14.7 12.4002 14.7 12.5002C14.7 12.6002 14.6833 12.6919 14.65 12.7752C14.6167 12.8585 14.5583 12.9419 14.475 13.0252L10.85 16.6502C10.8 16.7002 10.7458 16.7377 10.6875 16.7627C10.6292 16.7877 10.5667 16.8002 10.5 16.8002Z" fill="#D1D1D1"/>
</svg>
